<svg width="27" height="17" fill="none" xmlns="http://www.w3.org/2000/svg"><path d="M27 8.1c0 4.457-3.6 8.1-8.1 8.1-4.457 0-8.1-3.643-8.1-8.1S14.4 0 18.857 0C23.4 0 27 3.643 27 8.1z" fill="#FFB600"/><path d="M18.9 0C23.357 0 27 3.643 27 8.1s-3.6 8.1-8.1 8.1c-4.457 0-8.1-3.643-8.1-8.1" fill="#F7981D"/><path d="M18.9 0C23.357 0 27 3.643 27 8.1s-3.6 8.1-8.1 8.1" fill="#FF8500"/><path d="M8.014 0C3.6.043 0 3.643 0 8.1s3.6 8.1 8.1 8.1c2.1 0 3.986-.814 5.443-2.1.3-.257.557-.557.814-.857h-1.671a9.894 9.894 0 01-.6-.814h2.871a5.49 5.49 0 00.472-.858h-3.815a5.102 5.102 0 01-.343-.857h4.458c.257-.814.428-1.671.428-2.571 0-.6-.086-1.157-.171-1.714h-4.972c.043-.3.129-.558.215-.858h4.457c-.086-.3-.215-.6-.343-.857H11.57c.129-.3.3-.557.472-.857h2.871c-.171-.3-.385-.6-.643-.857h-1.585c.257-.3.514-.557.814-.814-1.414-1.329-3.343-2.1-5.443-2.1 0-.086 0-.086-.043-.086z" fill="#FF5050"/><path d="M0 8.1c0 4.457 3.6 8.1 8.1 8.1 2.1 0 3.986-.814 5.443-2.1.3-.257.557-.557.814-.857h-1.671a9.86 9.86 0 01-.6-.814h2.871c.172-.258.343-.558.472-.857h-3.815a5.107 5.107 0 01-.343-.858h4.458c.257-.814.428-1.671.428-2.571 0-.6-.086-1.157-.171-1.714h-4.972c.043-.3.129-.558.215-.858h4.457c-.086-.3-.215-.6-.343-.857H11.57c.129-.3.3-.557.472-.857h2.871c-.171-.3-.385-.6-.643-.857h-1.585c.257-.3.514-.557.814-.814-1.414-1.329-3.343-2.1-5.443-2.1h-.043" fill="#E52836"/><path d="M8.1 16.2c2.1 0 3.986-.814 5.443-2.1.3-.257.557-.557.814-.857h-1.671a9.883 9.883 0 01-.6-.814h2.871c.172-.258.343-.558.472-.857h-3.815a5.115 5.115 0 01-.343-.858h4.458c.257-.814.428-1.671.428-2.571 0-.6-.085-1.157-.171-1.714h-4.972c.043-.3.129-.558.215-.858h4.457a5.09 5.09 0 00-.343-.857h-3.771c.128-.3.3-.557.471-.857h2.871c-.171-.3-.385-.6-.643-.857h-1.585c.257-.3.514-.557.814-.814-1.414-1.329-3.343-2.1-5.443-2.1h-.043" fill="#CB2026"/><path d="M10.972 10.157l.128-.728c-.043 0-.128.042-.214.042-.3 0-.343-.171-.3-.257l.257-1.5h.472l.128-.814h-.428l.085-.514h-.857s-.514 2.828-.514 3.171c0 .514.3.729.686.729.257 0 .47-.086.557-.129zm.299-1.371c0 1.2.815 1.5 1.5 1.5.643 0 .9-.129.9-.129l.172-.814s-.472.214-.9.214c-.943 0-.771-.686-.771-.686h1.757s.128-.557.128-.771c0-.557-.3-1.243-1.243-1.243-.9-.086-1.543.857-1.543 1.929zm1.5-1.243c.472 0 .386.557.386.6h-.943c0-.043.086-.6.557-.6zm5.443 2.614l.172-.943s-.429.215-.729.215c-.6 0-.857-.472-.857-.986 0-1.029.514-1.586 1.114-1.586.429 0 .772.257.772.257l.128-.9S18.3 6 17.83 6c-.986 0-1.972.857-1.972 2.486 0 1.071.515 1.8 1.543 1.8.343 0 .814-.129.814-.129zM6.257 6.771c-.6 0-1.028.172-1.028.172L5.1 7.67s.386-.171.943-.171c.3 0 .557.043.557.3 0 .171-.043.214-.043.214h-.385c-.729 0-1.543.3-1.543 1.286 0 .771.514.943.814.943.6 0 .857-.386.9-.386L6.3 10.2h.772l.342-2.357c0-1.029-.857-1.072-1.157-1.072zM6.43 8.7c0 .129-.086.814-.6.814-.257 0-.343-.214-.343-.343 0-.214.128-.514.771-.514a.676.676 0 00.172.043zm1.799 1.543c.214 0 1.285.043 1.285-1.114 0-1.072-1.028-.858-1.028-1.286 0-.214.171-.3.471-.3.129 0 .6.043.6.043l.129-.772s-.3-.085-.815-.085c-.642 0-1.285.257-1.285 1.114 0 .986 1.071.9 1.071 1.286 0 .257-.3.3-.514.3-.386 0-.772-.129-.772-.129l-.128.771c.043.086.257.172.986.172zm17.1-4.157l-.172 1.157s-.343-.429-.814-.429c-.771 0-1.457.943-1.457 2.057 0 .686.343 1.415 1.071 1.415.514 0 .814-.343.814-.343l-.042.3h.857l.643-4.114-.9-.043zm-.386 2.271c0 .472-.214 1.072-.686 1.072-.3 0-.471-.258-.471-.686 0-.686.3-1.114.685-1.114.3 0 .472.214.472.728zM1.586 10.2L2.1 7.114l.086 3.086h.6L3.9 7.114 3.43 10.2h.9l.685-4.114H3.6l-.857 2.528L2.7 6.086H1.457L.771 10.2h.815zm13.285 0c.258-1.414.3-2.571.9-2.357.086-.557.215-.772.3-.986H15.9c-.386 0-.686.514-.686.514L15.3 6.9h-.814l-.558 3.343h.943V10.2zm5.315-3.429c-.6 0-1.029.172-1.029.172l-.128.728s.385-.171.942-.171c.3 0 .558.043.558.3 0 .171-.043.214-.043.214H20.1c-.729 0-1.543.3-1.543 1.286 0 .771.514.943.814.943.6 0 .858-.386.9-.386l-.042.343H21l.343-2.357c.043-1.029-.857-1.072-1.157-1.072zM20.4 8.7c0 .129-.086.814-.6.814-.257 0-.343-.214-.343-.343 0-.214.129-.514.772-.514.128.043.128.043.171.043zm1.672 1.5c.257-1.414.3-2.571.9-2.357.085-.557.214-.772.3-.986H23.1c-.386 0-.686.514-.686.514L22.5 6.9h-.814l-.557 3.343h.942V10.2z" fill="#fff"/><path d="M9.643 9.557c0 .514.3.729.685.729.3 0 .558-.086.643-.129l.129-.728c-.043 0-.129.042-.214.042-.3 0-.343-.171-.3-.257l.257-1.5h.471l.129-.814h-.429l.086-.514m.6 2.4c0 1.2.386 1.5 1.072 1.5.643 0 .9-.129.9-.129l.171-.814s-.471.214-.9.214c-.943 0-.771-.686-.771-.686h1.757s.128-.557.128-.771c0-.557-.3-1.243-1.242-1.243-.9-.086-1.115.857-1.115 1.929zm1.072-1.243c.471 0 .557.557.557.6h-1.115c0-.043.086-.6.558-.6zm5.443 2.614l.17-.943s-.428.215-.728.215c-.6 0-.857-.472-.857-.986 0-1.029.514-1.586 1.114-1.586.429 0 .772.257.772.257l.128-.9S18.3 6 17.83 6c-.986 0-1.543.857-1.543 2.486 0 1.071.086 1.8 1.114 1.8.343 0 .815-.129.815-.129zM5.1 7.714s.386-.171.943-.171c.3 0 .557.043.557.3 0 .171-.043.214-.043.214h-.385c-.729 0-1.543.3-1.543 1.286 0 .771.514.943.814.943.6 0 .857-.386.9-.386l-.043.343h.772l.342-2.357c0-.986-.857-1.029-1.2-1.029L5.1 7.714zm1.757.986c0 .129-.514.814-1.028.814-.257 0-.343-.214-.343-.343 0-.214.128-.514.771-.514.129.043.6.043.6.043zm.429 1.457s.257.086.986.086c.214 0 1.285.043 1.285-1.114 0-1.072-1.028-.858-1.028-1.286 0-.214.171-.3.471-.3.129 0 .6.043.6.043l.129-.772s-.3-.085-.815-.085c-.642 0-.857.257-.857 1.114 0 .986.643.9.643 1.286 0 .257-.3.3-.514.3m16.971-2.186s-.343-.429-.814-.429c-.771 0-1.029.943-1.029 2.057 0 .686-.085 1.415.643 1.415.514 0 .814-.343.814-.343l-.042.3h.857l.643-4.114-1.072 1.114zm-.043 1.114c0 .472-.385 1.072-.857 1.072-.3 0-.471-.258-.471-.686 0-.686.3-1.114.685-1.114.3 0 .643.214.643.728zM1.586 10.2L2.1 7.114l.086 3.086h.6L3.9 7.114 3.43 10.2h.9l.685-4.114H3.943l-1.2 2.528L2.7 6.086h-.47L.77 10.2h.815zm12.385 0h.9c.258-1.414.3-2.571.9-2.357.086-.557.215-.772.3-.986H15.9c-.386 0-.686.514-.686.514L15.3 6.9m3.729.814s.385-.171.942-.171c.3 0 .558.043.558.3 0 .171-.043.214-.043.214H20.1c-.729 0-1.543.3-1.543 1.286 0 .771.514.943.814.943.6 0 .858-.386.9-.386l-.042.343H21l.343-2.357c0-.986-.857-1.029-1.2-1.029l-1.114.857zm1.757.986c0 .129-.515.814-1.029.814-.257 0-.343-.214-.343-.343 0-.214.129-.514.772-.514.171.043.6.043.6.043zm.385 1.5h.9c.257-1.414.3-2.571.9-2.357.086-.557.215-.772.3-.986H23.1c-.386 0-.686.514-.686.514L22.5 6.9" fill="#DCE5E5"/></svg>