<svg width="408" height="494" fill="none" xmlns="http://www.w3.org/2000/svg"><path d="M0 5a5 5 0 015-5h398a5 5 0 015 5v484c0 .125-.004.249-.013.372L391.471 469l-20.269 25h-1.189l-20.268-25-20.268 25h-1.405l-20.268-25-20.268 25h-1.189l-20.268-25L246 493.767 225.921 469l-20.268 25h-1.189l-20.268-25-20.268 25h-1.189l-20.268-25-20.269 25h-1.189l-20.268-25-20.268 25h-1.405l-20.268-25-20.268 25h-1.19L17.08 469 .09 489.953A5.016 5.016 0 010 489V5z" fill="#F9FAFC"/><path d="M16.302 468.37L1 487.244V5a4 4 0 014-4h398a4 4 0 014 4v481.568l-14.753-18.198-.776-.958-.777.958L370.726 493h-.236l-19.968-24.63-.777-.958-.776.958L329.001 493h-.452l-19.968-24.63-.777-.958-.777.958L287.059 493h-.235l-19.968-24.63-.777-.958-.777.958L246 492.179l-19.302-23.809-.777-.958-.777.958L205.176 493h-.235l-19.968-24.63-.777-.958-.777.958L163.451 493h-.236l-19.968-24.63-.776-.958-.777.958L121.726 493h-.236l-19.968-24.63-.777-.958-.776.958L80 493h-.452L59.58 468.37l-.777-.958-.777.958L38.06 493h-.235l-19.968-24.63-.777-.958-.777.958z" stroke="#535869" stroke-opacity=".1" stroke-width="2"/></svg>