<svg width="30" height="10" fill="none" xmlns="http://www.w3.org/2000/svg"><path d="M11 8.857L12.524.286h2.38L13.43 8.857H11z" fill="#3C58BF"/><path d="M11 8.857L12.952.286h1.953l-1.476 8.571H11z" fill="#293688"/><path d="M22.048.381C21.572.191 20.81 0 19.858 0c-2.382 0-4.096 1.19-4.096 2.905 0 1.285 1.19 1.952 2.143 2.38.952.43 1.238.715 1.238 1.096 0 .571-.762.857-1.429.857-.952 0-1.476-.143-2.285-.476l-.334-.143-.333 1.952c.571.239 1.619.477 2.714.477 2.524 0 4.19-1.19 4.19-3 0-1-.618-1.762-2.047-2.381-.857-.429-1.38-.667-1.38-1.096 0-.38.428-.761 1.38-.761.81 0 1.381.142 1.81.333l.238.095.38-1.857z" fill="#3C58BF"/><path d="M22.048.381C21.572.191 20.81 0 19.858 0c-2.382 0-3.668 1.19-3.668 2.905 0 1.285.762 1.952 1.715 2.38.952.43 1.238.715 1.238 1.096 0 .571-.762.857-1.429.857-.952 0-1.476-.143-2.285-.476l-.334-.143-.333 1.952c.571.239 1.619.477 2.714.477 2.524 0 4.19-1.19 4.19-3 0-1-.618-1.762-2.047-2.381-.857-.429-1.38-.667-1.38-1.096 0-.38.428-.761 1.38-.761.81 0 1.381.142 1.81.333l.238.095.38-1.857z" fill="#293688"/><path d="M26.143.286c-.572 0-1 .047-1.238.619l-3.572 7.952h2.572l.476-1.428h3.047l.286 1.428H30L28 .286h-1.857zM25.047 6c.143-.429.953-2.524.953-2.524s.19-.524.333-.857l.143.81s.476 2.142.572 2.619h-2V6z" fill="#3C58BF"/><path d="M26.714.286c-.571 0-1 .047-1.238.619l-4.143 7.952h2.572l.476-1.428h3.047l.286 1.428H30L28 .286h-1.286zM25.048 6c.19-.476.952-2.524.952-2.524s.19-.524.333-.857l.143.81s.476 2.142.572 2.619h-2V6z" fill="#293688"/><path d="M6.619 6.286l-.238-1.238c-.429-1.429-1.81-3-3.333-3.762L5.19 8.905h2.572L11.619.333H9.048L6.619 6.286z" fill="#3C58BF"/><path d="M6.619 6.286l-.238-1.238c-.429-1.429-1.81-3-3.333-3.762L5.19 8.905h2.572L11.619.333H9.524L6.619 6.286z" fill="#293688"/><path d="M0 .286L.429.38c3.047.714 5.142 2.524 5.952 4.667L5.524 1C5.38.429 4.952.286 4.429.286H0z" fill="#FFBC00"/><path d="M0 .286C3.048 1 5.571 2.857 6.381 5l-.81-3.38A1.162 1.162 0 004.43.713L0 .286z" fill="#F7981D"/><path d="M0 .286C3.048 1 5.571 2.857 6.381 5L5.81 3.143c-.143-.572-.334-1.143-1-1.381L0 .286z" fill="#ED7C00"/><path d="M9 6L7.38 4.381l-.761 1.81L6.429 5C6 3.571 4.619 2 3.095 1.238l2.143 7.62H7.81L9 6zm4.429 2.857L11.38 6.762 11 8.857h2.429zm5.476-2.952c.19.19.285.333.238.524 0 .571-.762.857-1.429.857-.952 0-1.476-.143-2.285-.476l-.334-.143-.333 1.952c.571.238 1.619.476 2.714.476 1.524 0 2.762-.428 3.476-1.19l-2.047-2zm2.761 2.952h2.239l.476-1.428h3.047l.286 1.428H30l-.81-3.476-2.857-2.762.143.762s.476 2.143.572 2.619h-2c.19-.476.952-2.524.952-2.524s.19-.524.333-.857" fill="#051244"/></svg>