<svg width="68" height="16" fill="none" xmlns="http://www.w3.org/2000/svg"><path d="M60.048 0c1.235 0 2.41.29 3.464.81.166.076.332.168.497.26l-.723.657L62.202.581l-1.867 1.681-1.1-1.207-3.434 3.133 2.198 2.46-.858.764 2.17 2.46-.859.764 3.103 3.5 1.837-1.712 1.597 1.835c-.316.244-.663.49-1.039.703A7.78 7.78 0 0160.064 16c-4.353 0-7.893-3.59-7.893-8.008C52.156 3.607 55.696 0 60.048 0zm-1.446 7.504l1.882-1.712 1.687 1.91-1.883 1.712-1.686-1.91zm1.34 3.301L61.81 9.08l1.702 1.91-1.883 1.712-1.686-1.896zm-2.68-6.556l1.883-1.712 1.687 1.91-1.883 1.712-1.687-1.91zm3.449-.918l1.4-1.283 1.267 1.42-1.401 1.3-1.266-1.437zm2.5 5.885l1.4-1.284 1.267 1.437-1.401 1.284-1.266-1.437zm1.235 2.889l1.402-1.284 1.264 1.42-1.4 1.3-1.266-1.436zm.573-6.603l.933-.856.843.948-.933.856-.843-.948zm-1.205-2.828l.934-.87.844.962-.934.856-.844-.948zm2.395 5.655l.933-.855.858.947-.948.856-.844-.948zm-4.202-2.124l1.4-1.283 1.266 1.42-1.4 1.285-1.266-1.422zM4.131 5.512h-.07l-1.335 5.2h-1.09L0 3.325h1.131l1.131 5.511h.07l1.314-5.511h.9l1.403 5.511h.071l1.03-5.511h1.183l-1.637 7.387H5.505l-1.373-5.2zm5.536 2.054h2.313c-.05-1.093-.566-1.53-1.11-1.53-.617 0-1.092.49-1.203 1.53zm3.121 1.96v.793a3.48 3.48 0 01-1.787.479c-1.697 0-2.394-1.084-2.394-2.73 0-1.584.778-2.73 2.293-2.73 1.263 0 2.04.845 2.04 2.543v.386H9.649c0 1.25.494 1.802 1.535 1.802.545-.002 1.05-.2 1.605-.543zm2.502.436c.323.145.676.167.93.167.747 0 1.312-.48 1.312-2.167 0-1.323-.465-1.75-1.14-1.75-.405 0-.698.115-1.102.344v3.406zm.01-4.177c.303-.166.817-.386 1.364-.386 1.252 0 1.929.896 1.929 2.563 0 1.949-.91 2.897-2.373 2.897a4.564 4.564 0 01-1.97-.511V3.075l1.05-.26v2.97zm7.84 3.359h.05l2.16-5.824h1.253v7.388h-1.09V5.35h-.092l-2.061 5.357h-.646l-2.06-5.23h-.092v5.23h-.909V3.32h1.223l2.262 5.824zm7.921-1.076c0-1.407-.555-2-1.242-2-.667 0-1.243.593-1.243 2 0 1.428.526 2 1.243 2 .716 0 1.242-.572 1.242-2zm-3.545 0c0-1.824.97-2.73 2.303-2.73 1.334 0 2.303.906 2.303 2.73 0 1.781-.92 2.73-2.303 2.73-1.384 0-2.303-.949-2.303-2.73zm5.405-1.959c.455-.282 1.415-.772 2.576-.772 1.212 0 1.666.49 1.666 1.562v3.773h-1.05V7.14c0-.823-.393-.969-.909-.969-.403 0-.919.188-1.232.376v4.126h-1.05V6.109zm6.465 1.457h2.313c-.05-1.093-.565-1.53-1.11-1.53-.617 0-1.091.49-1.203 1.53zm3.121 1.96v.793a3.48 3.48 0 01-1.787.479c-1.696 0-2.393-1.084-2.393-2.73 0-1.584.777-2.73 2.292-2.73 1.264 0 2.041.845 2.041 2.543v.386h-3.293c0 1.25.495 1.802 1.536 1.802.544-.002 1.05-.2 1.604-.543zm4.348-4.188h1.081l-1.828 5.209c-.506 1.438-1.121 2.188-2.283 2.188v-.854c.688 0 1.111-.563 1.354-1.334l-1.94-5.21h1.112l1.293 3.835h.06l1.15-3.834z" fill="#036CB5"/></svg>