<svg width="65" height="23" fill="none" xmlns="http://www.w3.org/2000/svg"><path d="M64.976 12.335c-.086-.496-.504-.794-1.11-.8-.187-.004-.372.015-.553-.005-.358-.037-.452.082-.45.366.018 1.39.013 2.78.007 4.166-.004.727-.713 1.474-1.566 1.664-2.65.581-5.295 1.172-7.947 1.748a4.182 4.182 0 01-.915.095c-.132 0-.315-.1-.372-.198-.037-.065.08-.223.17-.304.121-.098.275-.176.432-.23.486-.174.98-.331 1.472-.494 1.967-.654 3.937-1.3 5.901-1.959.886-.3 1.364-.89 1.38-1.636.044-2.415.022-4.83.011-7.25 0-.382-.199-.701-.654-.867-.525-.188-.986-.038-1.441.179a8045.755 8045.755 0 01-8.353 3.98c-.82.39-1.277.956-1.273 1.761.01 2.285.003 4.565.005 6.847 0 .114.012.23.048.34.274.776.985 1.22 1.968 1.22 1.959.006 3.924.003 5.884.003 1.954 0 3.9.003 5.854-.002.424 0 .815-.088 1.133-.35.412-.331.39-.752.39-1.172.004-2.225.004-4.448.002-6.677a2.179 2.179 0 00-.023-.425zm-8.145-.713c.197-.513.628-.833 1.285-.916.434-.055.813.214.875.606.094.604-.66 1.306-1.406 1.303-.623 0-.97-.436-.754-.993zM10.081 2.79v2.092H8.516V2.784h-.818V7.96h.843V5.642h1.546v2.32h.833V2.791h-.839zm20.821 14.247c-.246-1.23-1.181-1.977-2.674-2.1-.588-.045-1.187-.008-1.82-.008v-3.276H25.13v9.107c.945 0 1.857.054 2.758-.015 1.35-.1 2.378-.637 2.86-1.737.281-.639.287-1.303.154-1.971zm-1.975 1.38c-.237 1.007-1.267 1.48-2.51 1.187 0-1.118-.005-2.217.011-3.32 0-.072.127-.191.219-.208 1.242-.264 2.073.15 2.288 1.186.077.372.08.782-.008 1.155zM5.702 0H4.35c-.636-.003-1.163.196-1.596.579-1.488 1.316-1.097 3.817.882 4.35-.665.999-1.326 1.995-2.019 3.039.282 0 .5-.015.712.004.28.025.425-.067.555-.275.495-.803 1.02-1.595 1.535-2.393.237-.365.266-.376.825-.269v2.907h.948V.393c.001-.393 0-.392-.49-.393zm-.484 4.201c-.645-.007-1.318.154-1.809-.33-.563-.552-.723-1.19-.515-1.891.017-.056.045-.109.067-.162.419-.962.971-1.23 2.257-1.07v3.453zM29.14 7.217c-1.405.468-2.374.045-2.628-1.18a3.349 3.349 0 01.145-1.89c.313-.845.934-1.097 1.967-.817.02.005.044-.004.08-.01.103-.128.209-.263.324-.408-.853-.56-2.022-.426-2.658.281-.491.546-.683 1.178-.746 1.841-.07.762.024 1.5.527 2.17.527.699 1.441 1.027 2.382.807.663-.156.737-.225.608-.794zM6.893 19.684v-8.028H2.098c-.066 1.363-.098 2.703-.207 4.04-.096 1.187-.359 2.351-.883 3.472-.174.37-.382.613-.911.524-.028-.003-.063.018-.097.03v2.946h1.432v-1.944h5.185v1.95h1.39v-2.99H6.893zm-1.553-.01H2.201c.268-.67.595-1.33.793-2.014.4-1.377.396-2.788.407-4.196.003-.217 0-.437 0-.676h1.94l-.001 6.886zM20.37 7.287c-.242.07-.475.155-.719.204-.679.138-1.164-.013-1.422-.441-.303-.5-.289-1.039-.27-1.601h2.563c.055-.843-.048-1.632-.582-2.35-.469-.63-1.28-.731-1.926-.213a2.452 2.452 0 00-.589.693 3.54 3.54 0 00-.458 2.22c.06.476.19.96.393 1.407.294.658.974.995 1.759.911.38-.04.76-.147 1.118-.271.398-.138.409-.265.134-.56zM18.384 3.49c.289-.359.765-.348 1.021.028.286.417.32.878.309 1.361h-1.786c.028-.505.125-.974.456-1.389zm4.343 8.336c-.056-.068-.126-.17-.196-.173-.423-.017-.847-.01-1.314-.01v3.742h-2.742V11.65h-1.462v9.141h1.48v-3.552c0-.586 0-.586.703-.586h2.031v4.141h1.486c.007-.1.018-.187.018-.269v-8.587c0-.039.018-.086-.004-.111zm.817-7.012c.511-.588 1-1.188 1.496-1.782.061-.073.114-.15.2-.261-.161 0-.255.01-.344-.002-.363-.049-.584.07-.781.329-.436.572-.92 1.118-1.386 1.673-.053.062-.119.116-.246.24V2.784h-.81v5.053h.822c0-.6-.013-1.188.008-1.774.008-.2.1-.402.154-.603a.818.818 0 01.284.272c.423.635.84 1.27 1.266 1.9.056.083.151.196.241.207.241.03.49.011.787.011-.593-.903-1.147-1.756-1.714-2.605-.107-.159-.115-.274.023-.432zm19.454 6.81c-.238-.008-.346.06-.43.241-.574 1.264-1.162 2.52-1.746 3.78-.256.551-.52 1.102-.779 1.653-.025-.003-.045-.008-.07-.01v-5.641h-1.48V20.8h1.453c.924-1.995 1.847-3.997 2.778-6.017v6.012h1.671V11.63c-.48 0-.939.013-1.397-.007zm-28.012 7.862c-.455.14-.864.3-1.296.39-1.402.287-2.319-.101-2.719-1.119-.308-.78-.296-1.588-.31-2.44h4.578c-.064-.708-.07-1.399-.2-2.068-.162-.838-.485-1.642-1.154-2.318-.592-.597-1.305-.77-2.193-.53-.923.251-1.486.831-1.865 1.518-1.11 2.018-1.205 4.096-.355 6.19.256.634.689 1.185 1.41 1.537 1.207.595 3.16.388 4.386-.469-.097-.238-.195-.48-.283-.691zm-3.633-6.483c.216-.303.503-.551.985-.528.472.025.751.271.94.591.419.72.49 1.49.485 2.29h-3.145c.08-.846.227-1.64.735-2.353zm4.32-5.731V2.784h-2.706c0 .336.012.638-.001.942-.045 1.054-.084 2.11-.523 3.119-.109.249-.19.515-.61.46v1.628h.78V7.875h2.931v1.053h.738V7.296l-.61-.024zm-.854 0h-1.823c.791-1.223.684-2.539.74-3.851h1.083v3.851zm17.453 4.372c0 3.065 0 6.107.004 9.15h1.352v-8.23h4.123v-.92h-5.48z" fill="#E69913"/></svg>