<svg width="27" height="17" viewBox="0 0 27 17" fill="none" xmlns="http://www.w3.org/2000/svg">
<path d="M26.9998 8.1C26.9998 12.5571 23.3998 16.2 18.8998 16.2C14.4427 16.2 10.7998 12.5571 10.7998 8.1C10.7998 3.64286 14.3998 0 18.8569 0C23.3998 0 26.9998 3.64286 26.9998 8.1Z" fill="#FFB600"/>
<path d="M18.8998 0C23.3569 0 26.9998 3.64286 26.9998 8.1C26.9998 12.5571 23.3998 16.2 18.8998 16.2C14.4427 16.2 10.7998 12.5571 10.7998 8.1" fill="#F7981D"/>
<path d="M18.8999 0C23.357 0 26.9999 3.64286 26.9999 8.1C26.9999 12.5571 23.3999 16.2 18.8999 16.2" fill="#FF8500"/>
<path d="M8.01428 0C3.6 0.0428571 0 3.64286 0 8.1C0 12.5571 3.6 16.2 8.1 16.2C10.2 16.2 12.0857 15.3857 13.5429 14.1C13.8429 13.8429 14.1 13.5429 14.3571 13.2429H12.6857C12.4714 12.9857 12.2571 12.6857 12.0857 12.4286H14.9571C15.1286 12.1714 15.3 11.8714 15.4286 11.5714H11.6143C11.4857 11.3143 11.3571 11.0143 11.2714 10.7143H15.7286C15.9857 9.9 16.1571 9.04285 16.1571 8.14285C16.1571 7.54286 16.0714 6.98571 15.9857 6.42857H11.0143C11.0571 6.12857 11.1429 5.87143 11.2286 5.57143H15.6857C15.6 5.27143 15.4714 4.97143 15.3429 4.71428H11.5714C11.7 4.41428 11.8714 4.15714 12.0429 3.85714H14.9143C14.7429 3.55714 14.5286 3.25714 14.2714 3H12.6857C12.9429 2.7 13.2 2.44286 13.5 2.18571C12.0857 0.857143 10.1571 0.0857142 8.05714 0.0857142C8.05714 -8.30207e-08 8.05714 0 8.01428 0Z" fill="#FF5050"/>
<path d="M0 8.10004C0 12.5572 3.6 16.2 8.1 16.2C10.2 16.2 12.0857 15.3858 13.5429 14.1C13.8429 13.8429 14.1 13.5429 14.3571 13.2429H12.6857C12.4714 12.9858 12.2571 12.6858 12.0857 12.4286H14.9571C15.1286 12.1715 15.3 11.8715 15.4286 11.5715H11.6143C11.4857 11.3143 11.3571 11.0143 11.2714 10.7143H15.7286C15.9857 9.90004 16.1571 9.04289 16.1571 8.14289C16.1571 7.54289 16.0714 6.98575 15.9857 6.42861H11.0143C11.0571 6.12861 11.1429 5.87147 11.2286 5.57147H15.6857C15.6 5.27147 15.4714 4.97147 15.3429 4.71432H11.5714C11.7 4.41432 11.8714 4.15718 12.0429 3.85718H14.9143C14.7429 3.55718 14.5286 3.25718 14.2714 3.00004H12.6857C12.9429 2.70004 13.2 2.4429 13.5 2.18575C12.0857 0.857183 10.1571 0.0857544 8.05714 0.0857544H8.01428" fill="#E52836"/>
<path d="M8.10012 16.2C10.2001 16.2 12.0858 15.3858 13.543 14.1C13.843 13.8429 14.1001 13.5429 14.3573 13.2429H12.6858C12.4715 12.9858 12.2573 12.6858 12.0858 12.4286H14.9573C15.1287 12.1715 15.3001 11.8715 15.4287 11.5715H11.6144C11.4858 11.3143 11.3573 11.0143 11.2715 10.7143H15.7287C15.9858 9.90004 16.1573 9.04289 16.1573 8.14289C16.1573 7.54289 16.0715 6.98575 15.9858 6.42861H11.0144C11.0573 6.12861 11.143 5.87147 11.2287 5.57147H15.6858C15.6001 5.27147 15.4715 4.97147 15.343 4.71432H11.5715C11.7001 4.41432 11.8715 4.15718 12.043 3.85718H14.9144C14.743 3.55718 14.5287 3.25718 14.2715 3.00004H12.6858C12.943 2.70004 13.2001 2.4429 13.5001 2.18575C12.0858 0.857183 10.1573 0.0857544 8.05726 0.0857544H8.0144" fill="#CB2026"/>
<path d="M10.9716 10.1571L11.1002 9.42854C11.0573 9.42854 10.9716 9.4714 10.8859 9.4714C10.5859 9.4714 10.543 9.29997 10.5859 9.21425L10.843 7.71425H11.3145L11.443 6.89997H11.0145L11.1002 6.38568H10.243C10.243 6.38568 9.72876 9.21425 9.72876 9.55711C9.72876 10.0714 10.0288 10.2857 10.4145 10.2857C10.6716 10.2857 10.8859 10.2 10.9716 10.1571Z" fill="white"/>
<path d="M11.2715 8.78574C11.2715 9.98574 12.0858 10.2857 12.7715 10.2857C13.4143 10.2857 13.6715 10.1572 13.6715 10.1572L13.8429 9.34288C13.8429 9.34288 13.3715 9.55717 12.9429 9.55717C12.0001 9.55717 12.1715 8.87145 12.1715 8.87145H13.9286C13.9286 8.87145 14.0572 8.31431 14.0572 8.10003C14.0572 7.54288 13.7572 6.85717 12.8143 6.85717C11.9143 6.77146 11.2715 7.71431 11.2715 8.78574ZM12.7715 7.54288C13.2429 7.54288 13.1572 8.10003 13.1572 8.14288H12.2143C12.2143 8.10003 12.3001 7.54288 12.7715 7.54288Z" fill="white"/>
<path d="M18.2143 10.1571L18.3857 9.21428C18.3857 9.21428 17.9572 9.42857 17.6572 9.42857C17.0572 9.42857 16.8 8.95714 16.8 8.44286C16.8 7.41428 17.3143 6.85714 17.9143 6.85714C18.3429 6.85714 18.6857 7.11429 18.6857 7.11429L18.8143 6.21429C18.8143 6.21429 18.3 6 17.8286 6C16.8429 6 15.8572 6.85714 15.8572 8.48571C15.8572 9.55714 16.3715 10.2857 17.4 10.2857C17.7429 10.2857 18.2143 10.1571 18.2143 10.1571Z" fill="white"/>
<path d="M6.25723 6.77142C5.65723 6.77142 5.22866 6.94285 5.22866 6.94285L5.10009 7.67142C5.10009 7.67142 5.4858 7.49999 6.04295 7.49999C6.34295 7.49999 6.60009 7.54285 6.60009 7.79999C6.60009 7.97142 6.55723 8.01428 6.55723 8.01428C6.55723 8.01428 6.30009 8.01428 6.17152 8.01428C5.44295 8.01428 4.62866 8.31428 4.62866 9.29999C4.62866 10.0714 5.14295 10.2429 5.44295 10.2429C6.04295 10.2429 6.30009 9.85714 6.34295 9.85714L6.30009 10.2H7.07152L7.41438 7.84285C7.41438 6.81428 6.55723 6.77142 6.25723 6.77142ZM6.42866 8.7C6.42866 8.82857 6.34295 9.51428 5.82866 9.51428C5.57152 9.51428 5.4858 9.29999 5.4858 9.17142C5.4858 8.95714 5.61438 8.65714 6.25723 8.65714C6.3858 8.69999 6.42866 8.7 6.42866 8.7Z" fill="white"/>
<path d="M8.22863 10.2429C8.44292 10.2429 9.51435 10.2857 9.51435 9.12858C9.51435 8.05715 8.48578 8.27143 8.48578 7.84286C8.48578 7.62858 8.65721 7.54286 8.95721 7.54286C9.08578 7.54286 9.5572 7.58572 9.5572 7.58572L9.68578 6.81429C9.68578 6.81429 9.38578 6.72858 8.87149 6.72858C8.22863 6.72858 7.58578 6.98572 7.58578 7.84286C7.58578 8.82858 8.65721 8.74286 8.65721 9.12858C8.65721 9.38572 8.35721 9.42858 8.14292 9.42858C7.75721 9.42858 7.37149 9.3 7.37149 9.3L7.24292 10.0714C7.28578 10.1571 7.50006 10.2429 8.22863 10.2429Z" fill="white"/>
<path d="M25.3286 6.08569L25.1572 7.24284C25.1572 7.24284 24.8143 6.81426 24.3429 6.81426C23.5715 6.81426 22.8857 7.75712 22.8857 8.87141C22.8857 9.55712 23.2286 10.2857 23.9572 10.2857C24.4715 10.2857 24.7715 9.94284 24.7715 9.94284L24.7286 10.2428H25.5857L26.2286 6.12855L25.3286 6.08569ZM24.9429 8.35712C24.9429 8.82855 24.7286 9.42855 24.2572 9.42855C23.9572 9.42855 23.7857 9.17141 23.7857 8.74284C23.7857 8.05712 24.0857 7.62855 24.4715 7.62855C24.7715 7.62855 24.9429 7.84284 24.9429 8.35712Z" fill="white"/>
<path d="M1.58577 10.2L2.10006 7.11427L2.18577 10.2H2.78577L3.90006 7.11427L3.42863 10.2H4.32863L5.01434 6.08569H3.60005L2.74291 8.61426L2.70006 6.08569H1.4572L0.771484 10.2H1.58577Z" fill="white"/>
<path d="M14.8713 10.2C15.1285 8.78575 15.1713 7.62861 15.7713 7.84289C15.857 7.28575 15.9856 7.07146 16.0713 6.85718C16.0713 6.85718 16.0285 6.85718 15.8999 6.85718C15.5142 6.85718 15.2142 7.37146 15.2142 7.37146L15.2999 6.90004H14.4856L13.9285 10.2429H14.8713V10.2Z" fill="white"/>
<path d="M20.1857 6.77142C19.5857 6.77142 19.1571 6.94285 19.1571 6.94285L19.0286 7.67142C19.0286 7.67142 19.4143 7.49999 19.9714 7.49999C20.2714 7.49999 20.5286 7.54285 20.5286 7.79999C20.5286 7.97142 20.4857 8.01428 20.4857 8.01428C20.4857 8.01428 20.2286 8.01428 20.1 8.01428C19.3714 8.01428 18.5571 8.31428 18.5571 9.29999C18.5571 10.0714 19.0714 10.2429 19.3714 10.2429C19.9714 10.2429 20.2286 9.85714 20.2714 9.85714L20.2286 10.2H21L21.3428 7.84285C21.3857 6.81428 20.4857 6.77142 20.1857 6.77142ZM20.4 8.7C20.4 8.82857 20.3143 9.51428 19.8 9.51428C19.5428 9.51428 19.4571 9.29999 19.4571 9.17142C19.4571 8.95714 19.5857 8.65714 20.2286 8.65714C20.3571 8.69999 20.3571 8.7 20.4 8.7Z" fill="white"/>
<path d="M22.0715 10.2C22.3287 8.78575 22.3715 7.62861 22.9715 7.84289C23.0572 7.28575 23.1858 7.07146 23.2715 6.85718C23.2715 6.85718 23.2287 6.85718 23.1001 6.85718C22.7144 6.85718 22.4144 7.37146 22.4144 7.37146L22.5001 6.90004H21.6858L21.1287 10.2429H22.0715V10.2Z" fill="white"/>
<path d="M9.64282 9.55711C9.64282 10.0714 9.94282 10.2857 10.3285 10.2857C10.6285 10.2857 10.8857 10.2 10.9714 10.1571L11.1 9.42854C11.0571 9.42854 10.9714 9.4714 10.8857 9.4714C10.5857 9.4714 10.5428 9.29997 10.5857 9.21425L10.8428 7.71425H11.3143L11.4428 6.89997H11.0143L11.1 6.38568" fill="#DCE5E5"/>
<path d="M11.7002 8.78574C11.7002 9.98574 12.0859 10.2857 12.7716 10.2857C13.4145 10.2857 13.6716 10.1572 13.6716 10.1572L13.8431 9.34288C13.8431 9.34288 13.3716 9.55717 12.9431 9.55717C12.0002 9.55717 12.1716 8.87145 12.1716 8.87145H13.9288C13.9288 8.87145 14.0573 8.31431 14.0573 8.10003C14.0573 7.54288 13.7573 6.85717 12.8145 6.85717C11.9145 6.77146 11.7002 7.71431 11.7002 8.78574ZM12.7716 7.54288C13.2431 7.54288 13.3288 8.10003 13.3288 8.14288H12.2145C12.2145 8.10003 12.3002 7.54288 12.7716 7.54288Z" fill="#DCE5E5"/>
<path d="M18.2145 10.1571L18.3859 9.21428C18.3859 9.21428 17.9573 9.42857 17.6573 9.42857C17.0573 9.42857 16.8002 8.95714 16.8002 8.44286C16.8002 7.41428 17.3145 6.85714 17.9145 6.85714C18.343 6.85714 18.6859 7.11429 18.6859 7.11429L18.8145 6.21429C18.8145 6.21429 18.3002 6 17.8287 6C16.843 6 16.2859 6.85714 16.2859 8.48571C16.2859 9.55714 16.3716 10.2857 17.4002 10.2857C17.743 10.2857 18.2145 10.1571 18.2145 10.1571Z" fill="#DCE5E5"/>
<path d="M5.10009 7.71432C5.10009 7.71432 5.4858 7.54289 6.04295 7.54289C6.34295 7.54289 6.60009 7.58575 6.60009 7.84289C6.60009 8.01432 6.55723 8.05718 6.55723 8.05718C6.55723 8.05718 6.30009 8.05718 6.17152 8.05718C5.44295 8.05718 4.62866 8.35718 4.62866 9.34289C4.62866 10.1143 5.14295 10.2857 5.44295 10.2857C6.04295 10.2857 6.30009 9.90003 6.34295 9.90003L6.30009 10.2429H7.07152L7.41438 7.88575C7.41438 6.90003 6.55723 6.85718 6.21438 6.85718L5.10009 7.71432ZM6.85723 8.70003C6.85723 8.82861 6.34295 9.51432 5.82866 9.51432C5.57152 9.51432 5.4858 9.30003 5.4858 9.17146C5.4858 8.95718 5.61438 8.65718 6.25723 8.65718C6.3858 8.70003 6.85723 8.70003 6.85723 8.70003Z" fill="#DCE5E5"/>
<path d="M7.28589 10.1571C7.28589 10.1571 7.54303 10.2429 8.2716 10.2429C8.48589 10.2429 9.55732 10.2857 9.55732 9.12858C9.55732 8.05715 8.52875 8.27143 8.52875 7.84286C8.52875 7.62858 8.70017 7.54286 9.00017 7.54286C9.12875 7.54286 9.60017 7.58572 9.60017 7.58572L9.72875 6.81429C9.72875 6.81429 9.42875 6.72858 8.91446 6.72858C8.2716 6.72858 8.05732 6.98572 8.05732 7.84286C8.05732 8.82858 8.70017 8.74286 8.70017 9.12858C8.70017 9.38572 8.40017 9.42858 8.18589 9.42858" fill="#DCE5E5"/>
<path d="M25.1572 7.24289C25.1572 7.24289 24.8144 6.81432 24.343 6.81432C23.5715 6.81432 23.3144 7.75717 23.3144 8.87146C23.3144 9.55717 23.2287 10.2857 23.9572 10.2857C24.4715 10.2857 24.7715 9.94289 24.7715 9.94289L24.7287 10.2429H25.5858L26.2287 6.1286L25.1572 7.24289ZM25.1144 8.35717C25.1144 8.8286 24.7287 9.4286 24.2572 9.4286C23.9572 9.4286 23.7858 9.17146 23.7858 8.74289C23.7858 8.05717 24.0858 7.6286 24.4715 7.6286C24.7715 7.6286 25.1144 7.84289 25.1144 8.35717Z" fill="#DCE5E5"/>
<path d="M1.58577 10.2L2.10006 7.11427L2.18577 10.2H2.78577L3.90006 7.11427L3.42863 10.2H4.32863L5.01434 6.08569H3.94291L2.74291 8.61426L2.70006 6.08569H2.22863L0.771484 10.2H1.58577Z" fill="#DCE5E5"/>
<path d="M13.9714 10.2H14.8714C15.1286 8.78575 15.1714 7.62861 15.7714 7.84289C15.8571 7.28575 15.9857 7.07146 16.0714 6.85718C16.0714 6.85718 16.0286 6.85718 15.9 6.85718C15.5143 6.85718 15.2143 7.37146 15.2143 7.37146L15.3 6.90004" fill="#DCE5E5"/>
<path d="M19.0286 7.71432C19.0286 7.71432 19.4143 7.54289 19.9714 7.54289C20.2714 7.54289 20.5286 7.58575 20.5286 7.84289C20.5286 8.01432 20.4857 8.05718 20.4857 8.05718C20.4857 8.05718 20.2286 8.05718 20.1 8.05718C19.3714 8.05718 18.5571 8.35718 18.5571 9.34289C18.5571 10.1143 19.0714 10.2857 19.3714 10.2857C19.9714 10.2857 20.2286 9.90003 20.2714 9.90003L20.2286 10.2429H21L21.3428 7.88575C21.3428 6.90003 20.4857 6.85718 20.1428 6.85718L19.0286 7.71432ZM20.7857 8.70003C20.7857 8.82861 20.2714 9.51432 19.7571 9.51432C19.5 9.51432 19.4143 9.30003 19.4143 9.17146C19.4143 8.95718 19.5428 8.65718 20.1857 8.65718C20.3571 8.70003 20.7857 8.70003 20.7857 8.70003Z" fill="#DCE5E5"/>
<path d="M21.1714 10.2H22.0714C22.3285 8.78575 22.3714 7.62861 22.9714 7.84289C23.0571 7.28575 23.1857 7.07146 23.2714 6.85718C23.2714 6.85718 23.2285 6.85718 23.1 6.85718C22.7142 6.85718 22.4142 7.37146 22.4142 7.37146L22.5 6.90004" fill="#DCE5E5"/>
</svg>
