<svg width="71" height="18" fill="none" xmlns="http://www.w3.org/2000/svg"><path d="M54.111 7h-3.778c-.222 0-.444.222-.555.444l-1.556 9.778c0 .222.111.334.334.334h2c.222 0 .333-.112.333-.334l.444-2.778c0-.222.223-.444.556-.444h1.222c2.556 0 4-1.222 4.333-3.667.223-1 0-1.889-.444-2.444C56.333 7.333 55.333 7 54.11 7zm.445 3.667C54.333 12 53.333 12 52.333 12h-.666l.444-2.556c0-.11.111-.222.333-.222h.223c.666 0 1.333 0 1.666.445.223.11.223.444.223 1z" fill="#139AD6"/><path d="M26.889 4.667H23.11c-.222 0-.444.222-.555.444L21 14.89c0 .222.111.333.333.333h1.778c.222 0 .445-.222.556-.444l.444-2.667c0-.222.222-.444.556-.444h1.222c2.555 0 4-1.223 4.333-3.667.222-1 0-1.889-.444-2.444-.667-.556-1.556-.89-2.89-.89zm.444 3.666c-.222 1.334-1.222 1.334-2.222 1.334h-.555L25 7.11c0-.111.111-.222.333-.222h.223c.666 0 1.333 0 1.666.444.111.111.222.445.111 1zM38.333 8.222h-1.778c-.11 0-.333.111-.333.223L36.111 9 36 8.778C35.555 8.222 34.778 8 33.889 8c-2 0-3.778 1.556-4.111 3.667-.223 1.11.11 2.11.666 2.777.556.667 1.334.89 2.334.89 1.666 0 2.555-1 2.555-1l-.11.555c0 .222.11.333.332.333h1.667c.222 0 .444-.222.556-.444l1-6.222c-.111-.111-.334-.334-.445-.334zm-2.555 3.556c-.223 1-1 1.778-2.111 1.778-.556 0-1-.223-1.223-.445-.222-.333-.333-.778-.333-1.333.111-1 1-1.778 2-1.778.556 0 .889.222 1.222.444.334.334.445.89.445 1.334z" fill="#263B80"/><path d="M65.445 10.556h-1.778c-.111 0-.334.11-.334.222l-.11.555-.112-.222c-.444-.556-1.222-.778-2.11-.778-2 0-3.779 1.556-4.112 3.667-.222 1.111.111 2.111.667 2.778.555.666 1.333.889 2.333.889 1.667 0 2.555-1 2.555-1l-.11.555c0 .222.11.333.333.333h1.666c.223 0 .445-.222.556-.444l1-6.222c-.111-.111-.222-.333-.444-.333zm-2.556 3.555c-.222 1-1 1.778-2.111 1.778-.556 0-1-.222-1.222-.445-.223-.333-.334-.777-.334-1.333.111-1 1-1.778 2-1.778.556 0 .89.223 1.222.445.445.333.556.889.445 1.333z" fill="#139AD6"/><path d="M48 8.222H46.11c-.222 0-.333.111-.444.222l-2.445 3.778-1.111-3.555c-.111-.223-.222-.334-.556-.334h-1.777c-.223 0-.334.223-.334.445l2 5.889-1.889 2.666c-.11.223 0 .556.223.556h1.777c.223 0 .334-.111.445-.222l6.111-8.778c.333-.333.111-.667-.111-.667z" fill="#263B80"/><path d="M68.556 7.6L67 17.6c0 .221.111.332.333.332h1.556c.222 0 .444-.222.555-.444L71 7.71c0-.222-.111-.333-.333-.333h-1.778c-.111-.111-.222 0-.333.222z" fill="#139AD6"/><path d="M12.778 1.333C12 .444 10.555 0 8.556 0H3c-.333 0-.667.333-.778.667L0 15.222c0 .334.222.556.444.556H3.89l.889-5.445v.223c.11-.334.444-.667.778-.667h1.666c3.222 0 5.667-1.333 6.445-5v-.333c-.111 0-.111 0 0 0 .11-1.445-.111-2.334-.89-3.223z" fill="#263B80"/><path d="M13.556 4.556v.333c-.778 3.778-3.223 5-6.445 5H5.445c-.334 0-.667.333-.778.667l-1.111 6.777c0 .223.11.445.444.445H6.89c.333 0 .667-.223.667-.556v-.11l.555-3.445v-.223c0-.333.334-.555.667-.555h.444c2.778 0 5-1.111 5.556-4.445.222-1.333.111-2.555-.556-3.333a1.138 1.138 0 00-.666-.555z" fill="#139AD6"/><path d="M12.778 4.222c-.111 0-.222-.11-.334-.11-.11 0-.222 0-.333-.112-.444-.111-.889-.111-1.444-.111H6.333c-.11 0-.222 0-.333.111a.611.611 0 00-.333.556l-.89 5.777v.223c.112-.334.445-.667.779-.667h1.666c3.222 0 5.667-1.333 6.445-5 0-.111 0-.222.11-.333-.221-.112-.332-.223-.555-.223-.333-.11-.333-.11-.444-.11z" fill="#232C65"/></svg>