<svg width="408" height="494" viewBox="0 0 408 494" fill="none" xmlns="http://www.w3.org/2000/svg">
<path d="M0.000488281 5C0.000488281 2.23857 2.23906 0 5.00049 0H403C405.762 0 408 2.23858 408 5V489C408 489.125 407.996 489.249 407.987 489.372L391.471 469L371.202 494H370.013L349.745 469L329.477 494H328.072L307.804 469L287.536 494H286.347L266.079 469L246 493.767L225.921 469L205.653 494H204.464L184.196 469L163.928 494H162.739L142.471 469L122.202 494H121.013L100.745 469L80.4773 494H79.0721L58.804 469L38.5359 494H37.3469L17.0788 469L0.091302 489.953C0.0317011 489.645 0.000488281 489.326 0.000488281 489V5Z" fill="#F9FAFC"/>
<path d="M16.302 468.37L1.00049 487.244V5C1.00049 2.79086 2.79135 1 5.00049 1H403C405.21 1 407 2.79086 407 5V486.568L392.247 468.37L391.471 467.412L390.694 468.37L370.726 493H370.49L350.522 468.37L349.745 467.412L348.969 468.37L329.001 493H328.549L308.581 468.37L307.804 467.412L307.027 468.37L287.059 493H286.824L266.856 468.37L266.079 467.412L265.302 468.37L246 492.179L226.698 468.37L225.921 467.412L225.144 468.37L205.176 493H204.941L184.973 468.37L184.196 467.412L183.419 468.37L163.451 493H163.215L143.247 468.37L142.471 467.412L141.694 468.37L121.726 493H121.49L101.522 468.37L100.745 467.412L99.9686 468.37L80.0007 493H79.5488L59.5808 468.37L58.804 467.412L58.0273 468.37L38.0593 493H37.8235L17.8556 468.37L17.0788 467.412L16.302 468.37Z" stroke="#535869" stroke-opacity="0.1" stroke-width="2"/>
</svg>
