<svg width="30" height="10" viewBox="0 0 30 10" fill="none" xmlns="http://www.w3.org/2000/svg">
<path d="M11 8.85719L12.5238 0.285767H14.9048L13.4286 8.85719H11Z" fill="#3C58BF"/>
<path d="M11 8.85719L12.9524 0.285767H14.9048L13.4286 8.85719H11Z" fill="#293688"/>
<path d="M22.0477 0.380952C21.5715 0.190476 20.8096 0 19.8572 0C17.4762 0 15.762 1.19048 15.762 2.90476C15.762 4.19048 16.9524 4.85714 17.9048 5.28571C18.8572 5.71428 19.1429 6 19.1429 6.38095C19.1429 6.95238 18.381 7.2381 17.7143 7.2381C16.762 7.2381 16.2382 7.09524 15.4286 6.76191L15.0953 6.61905L14.762 8.57143C15.3334 8.80952 16.381 9.04762 17.4762 9.04762C20.0001 9.04762 21.6667 7.85714 21.6667 6.04762C21.6667 5.04762 21.0477 4.28571 19.6191 3.66667C18.762 3.23809 18.2382 3 18.2382 2.57143C18.2382 2.19048 18.6667 1.80952 19.6191 1.80952C20.4286 1.80952 21.0001 1.95238 21.4286 2.14286L21.6667 2.23809L22.0477 0.380952Z" fill="#3C58BF"/>
<path d="M22.0477 0.380952C21.5715 0.190476 20.8096 0 19.8572 0C17.4762 0 16.1905 1.19048 16.1905 2.90476C16.1905 4.19048 16.9524 4.85714 17.9048 5.28571C18.8572 5.71428 19.1429 6 19.1429 6.38095C19.1429 6.95238 18.381 7.2381 17.7143 7.2381C16.762 7.2381 16.2382 7.09524 15.4286 6.76191L15.0953 6.61905L14.762 8.57143C15.3334 8.80952 16.381 9.04762 17.4762 9.04762C20.0001 9.04762 21.6667 7.85714 21.6667 6.04762C21.6667 5.04762 21.0477 4.28571 19.6191 3.66667C18.762 3.23809 18.2382 3 18.2382 2.57143C18.2382 2.19048 18.6667 1.80952 19.6191 1.80952C20.4286 1.80952 21.0001 1.95238 21.4286 2.14286L21.6667 2.23809L22.0477 0.380952Z" fill="#293688"/>
<path d="M26.1428 0.285767C25.5713 0.285767 25.1428 0.333386 24.9047 0.904815L21.3333 8.85719H23.9047L24.3809 7.42862H27.4285L27.7142 8.85719H29.9999L27.9999 0.285767H26.1428ZM25.0475 6.00005C25.1904 5.57148 25.9999 3.47624 25.9999 3.47624C25.9999 3.47624 26.1904 2.95243 26.3333 2.6191L26.4761 3.42862C26.4761 3.42862 26.9523 5.57148 27.0475 6.04767H25.0475V6.00005Z" fill="#3C58BF"/>
<path d="M26.7142 0.285767C26.1428 0.285767 25.7142 0.333386 25.4761 0.904815L21.3333 8.85719H23.9047L24.3809 7.42862H27.4285L27.7142 8.85719H29.9999L27.9999 0.285767H26.7142ZM25.0475 6.00005C25.238 5.52386 25.9999 3.47624 25.9999 3.47624C25.9999 3.47624 26.1904 2.95243 26.3333 2.6191L26.4761 3.42862C26.4761 3.42862 26.9523 5.57148 27.0475 6.04767H25.0475V6.00005Z" fill="#293688"/>
<path d="M6.61904 6.28576L6.38094 5.04766C5.95237 3.61909 4.57142 2.04766 3.04761 1.28576L5.19046 8.9048H7.76189L11.619 0.333374H9.04761L6.61904 6.28576Z" fill="#3C58BF"/>
<path d="M6.61904 6.28576L6.38094 5.04766C5.95237 3.61909 4.57142 2.04766 3.04761 1.28576L5.19046 8.9048H7.76189L11.619 0.333374H9.5238L6.61904 6.28576Z" fill="#293688"/>
<path d="M0 0.285767L0.428571 0.381005C3.47619 1.09529 5.57143 2.90481 6.38095 5.04767L5.52381 1.00005C5.38095 0.428624 4.95238 0.285767 4.42857 0.285767H0Z" fill="#FFBC00"/>
<path d="M0 0.285767C3.04762 1.00005 5.57143 2.8572 6.38095 5.00005L5.57143 1.6191C5.42857 1.04767 4.95238 0.714339 4.42857 0.714339L0 0.285767Z" fill="#F7981D"/>
<path d="M0 0.285767C3.04762 1.00005 5.57143 2.8572 6.38095 5.00005L5.80952 3.14291C5.66667 2.57148 5.47619 2.00005 4.80952 1.76196L0 0.285767Z" fill="#ED7C00"/>
<path d="M8.99998 6L7.38093 4.38096L6.61902 6.19048L6.42855 5C5.99998 3.57143 4.61902 2 3.09521 1.2381L5.23807 8.85715H7.8095L8.99998 6Z" fill="#051244"/>
<path d="M13.4286 8.85714L11.381 6.7619L11 8.85714H13.4286Z" fill="#051244"/>
<path d="M18.9048 5.90479C19.0953 6.09526 19.1905 6.23812 19.1429 6.4286C19.1429 7.00002 18.381 7.28574 17.7143 7.28574C16.762 7.28574 16.2382 7.14288 15.4286 6.80955L15.0953 6.66669L14.762 8.61907C15.3334 8.85717 16.381 9.09526 17.4762 9.09526C19.0001 9.09526 20.2382 8.66669 20.9524 7.90479L18.9048 5.90479Z" fill="#051244"/>
<path d="M21.6665 8.85711H23.9046L24.3808 7.42854H27.4284L27.7141 8.85711H29.9998L29.1903 5.38092L26.3332 2.61902L26.476 3.38092C26.476 3.38092 26.9522 5.52378 27.0475 5.99997H25.0475C25.2379 5.52378 25.9998 3.47616 25.9998 3.47616C25.9998 3.47616 26.1903 2.95235 26.3332 2.61902" fill="#051244"/>
</svg>
