<svg width="68" height="16" viewBox="0 0 68 16" fill="none" xmlns="http://www.w3.org/2000/svg">
<path d="M60.0481 0C61.283 0 62.4578 0.290082 63.5123 0.810116C63.6777 0.886496 63.844 0.978315 64.0086 1.07013L63.2859 1.72749L62.2021 0.580976L60.3347 2.26215L59.2351 1.05469L55.801 4.1879L57.9994 6.64832L57.1413 7.41212L59.3103 9.87253L58.4522 10.6363L61.5554 14.136L63.3919 12.4239L64.9894 14.2587C64.6728 14.5033 64.3261 14.7487 63.95 14.9616C62.8053 15.6189 61.4794 16 60.0639 16C55.7108 16 52.1714 12.4093 52.1714 7.99228C52.1556 3.60693 55.6957 0 60.0481 0ZM58.6018 7.50394L60.4843 5.79188L62.1712 7.7022L60.288 9.41425L58.6018 7.50394ZM59.9428 10.8053L61.8103 9.07867L63.5123 10.989L61.629 12.701L59.9428 10.8053ZM57.2624 4.24884L59.1449 2.53679L60.8318 4.44711L58.9485 6.15916L57.2624 4.24884ZM60.7107 3.33147L62.1119 2.04764L63.3777 3.46879L61.9765 4.76807L60.7107 3.33147ZM63.2114 9.21599L64.6118 7.93215L65.8777 9.36875L64.4765 10.6534L63.2114 9.21599ZM64.4464 12.1046L65.8476 10.8208L67.1118 12.2419L65.7114 13.5404L64.4464 12.1046ZM65.0187 5.5018L65.9521 4.64618L66.7951 5.59443L65.8618 6.45005L65.0187 5.5018ZM63.8139 2.67411L64.748 1.80306L65.5919 2.76593L64.6578 3.62155L63.8139 2.67411ZM66.2085 8.32949L67.1419 7.47387L68 8.42131L67.0516 9.27693L66.2085 8.32949ZM62.0066 6.20547L63.4078 4.92164L64.6728 6.3428L63.2724 7.62663L62.0066 6.20547Z" fill="#036CB5"/>
<path d="M4.1315 5.51225H4.06026L2.72637 10.7118H1.63629L0 3.32486H1.13124L2.26247 8.83641H2.33293L3.64624 3.32486H4.54552L5.94908 8.83641H6.02033L7.05023 3.32486H8.23293L6.59584 10.7118H5.50498L4.1315 5.51225Z" fill="#036CB5"/>
<path d="M9.66736 7.56649H11.9797C11.9298 6.47279 11.4145 6.03564 10.8691 6.03564C10.2532 6.03564 9.77819 6.52561 9.66736 7.56649ZM12.788 9.52637V10.3186C12.3336 10.5892 11.728 10.798 11.0005 10.798C9.30401 10.798 8.60738 9.71407 8.60738 8.06865C8.60738 6.48417 9.38475 5.33847 10.8999 5.33847C12.1626 5.33847 12.9407 6.18271 12.9407 7.88095V8.26691H9.64757C9.64757 9.51662 10.1423 10.0692 11.1833 10.0692C11.728 10.0675 12.233 9.86927 12.788 9.52637Z" fill="#036CB5"/>
<path d="M15.2895 9.96189C15.6125 10.1073 15.9663 10.1293 16.2197 10.1293C16.9669 10.1293 17.5322 9.64906 17.5322 7.9622C17.5322 6.63855 17.0675 6.21196 16.3914 6.21196C15.9869 6.21196 15.694 6.32734 15.2903 6.55567L15.2895 9.96189ZM15.3006 5.78455C15.603 5.61879 16.1175 5.39859 16.6638 5.39859C17.9161 5.39859 18.593 6.29484 18.593 7.9622C18.593 9.9107 17.6834 10.859 16.2197 10.859C15.6837 10.859 14.8557 10.6818 14.2493 10.3479V3.0755L15.3006 2.81548V5.78455Z" fill="#036CB5"/>
<path d="M23.1392 9.14445H23.1899L25.3511 3.32006H26.6042V10.7078H25.5133V5.35145H25.4223L23.3609 10.7078H22.7149L20.6543 5.47739H20.5633V10.7078H19.6545V3.32006H20.8768L23.1392 9.14445Z" fill="#036CB5"/>
<path d="M31.061 8.06784C31.061 6.66131 30.5061 6.06734 29.819 6.06734C29.1524 6.06734 28.5761 6.66131 28.5761 8.06784C28.5761 9.4955 29.1017 10.0683 29.819 10.0683C30.5354 10.0675 31.061 9.4955 31.061 8.06784ZM27.5161 8.06784C27.5161 6.24366 28.4859 5.33767 29.819 5.33767C31.1528 5.33767 32.1218 6.24366 32.1218 8.06784C32.1218 9.84896 31.2027 10.798 29.819 10.798C28.4352 10.798 27.5161 9.84896 27.5161 8.06784Z" fill="#036CB5"/>
<path d="M32.9213 6.10878C33.3757 5.82683 34.336 5.33686 35.4973 5.33686C36.7093 5.33686 37.1629 5.82683 37.1629 6.8994V10.6721H36.1132V7.13991C36.1132 6.3168 35.7197 6.17135 35.2044 6.17135C34.8006 6.17135 34.2853 6.35905 33.9718 6.54675V10.6729H32.9213V6.10878Z" fill="#036CB5"/>
<path d="M39.3859 7.56649H41.6991C41.6492 6.47279 41.1338 6.03564 40.5884 6.03564C39.9717 6.03564 39.4976 6.52561 39.3859 7.56649ZM42.5073 9.52637V10.3186C42.0529 10.5892 41.4473 10.798 40.7198 10.798C39.0242 10.798 38.3267 9.71407 38.3267 8.06865C38.3267 6.48417 39.1041 5.33847 40.6193 5.33847C41.8827 5.33847 42.6601 6.18271 42.6601 7.88095V8.26691H39.3669C39.3669 9.51662 39.8617 10.0692 40.9027 10.0692C41.4465 10.0675 41.9524 9.86927 42.5073 9.52637Z" fill="#036CB5"/>
<path d="M46.8549 5.33767H47.9363L46.1076 10.5469C45.6017 11.9852 44.9866 12.7352 43.8253 12.7352V11.8812C44.5125 11.8812 44.936 11.3181 45.179 10.5469L43.2395 5.33767H44.351L45.6437 9.17211H45.7047L46.8549 5.33767Z" fill="#036CB5"/>
</svg>
