<svg width="72" height="24" fill="none" xmlns="http://www.w3.org/2000/svg"><path d="M17 8.217c0-.263-.155-.5-.395-.607L8.753 4.124a.664.664 0 00-.54 0L.393 7.61A.664.664 0 000 8.217v1.793c0 .367.297.664.664.664.39 0 .565.333.565.664v6.193c0 .014 0 .027.002.041l-.002.041c0 .367.297.664.664.664h13.28a.664.664 0 100-1.328h-1.991v-5.611a.665.665 0 011.328 0v2.939a.664.664 0 001.328 0v-2.94c0-.155.036-.663.498-.663A.664.664 0 0017 10.01v-.017-1.776zM3.885 16.949H2.557v-5.611a.665.665 0 011.328 0v5.611zm2.656 0H5.213v-5.611a.665.665 0 011.328 0v5.611zm2.656 0H7.87v-5.611a.665.665 0 011.328 0v5.611zm2.657 0h-1.329v-5.611a.665.665 0 011.329 0v5.611zm3.818-7.636H1.328v-.665l7.156-3.19 7.188 3.19v.665zM32.654 11h-.984L29.94 5.264a18.58 18.58 0 01-.275-.961c-.102-.387-.154-.62-.158-.698-.086.516-.223 1.08-.41 1.694L27.422 11h-.985l-2.279-8.566h1.055l1.353 5.29c.188.743.325 1.415.41 2.016.106-.715.262-1.414.47-2.097l1.534-5.21h1.055l1.611 5.256c.188.606.346 1.29.475 2.051.074-.554.215-1.23.422-2.027l1.348-5.28h1.054L32.655 11zm4.46 0h-.973V4.578h.972V11zm-1.055-8.162c0-.223.054-.385.164-.486a.567.567 0 01.41-.159c.156 0 .29.053.404.159.113.105.17.267.17.486 0 .219-.057.383-.17.492a.573.573 0 01-.404.158.567.567 0 01-.41-.158c-.11-.11-.164-.273-.164-.492zm6.047 1.623c.285 0 .54.023.767.07l-.135.903a3.313 3.313 0 00-.703-.088c-.52 0-.965.21-1.336.633-.367.421-.55.947-.55 1.576V11h-.973V4.578h.802l.112 1.19h.047c.238-.418.525-.74.861-.967a1.94 1.94 0 011.108-.34zm4.681 6.656c-.95 0-1.7-.289-2.25-.867-.547-.578-.82-1.38-.82-2.408 0-1.035.254-1.858.761-2.467.512-.61 1.198-.914 2.057-.914.805 0 1.442.266 1.91.797.47.527.703 1.224.703 2.092v.615h-4.423c.02.754.209 1.326.568 1.717.363.39.873.586 1.53.586.69 0 1.374-.145 2.05-.434v.867c-.344.149-.67.254-.978.317-.305.066-.674.1-1.108.1zm-.264-5.842c-.515 0-.927.168-1.236.504-.305.336-.484.801-.539 1.395h3.358c0-.613-.137-1.082-.41-1.406-.274-.329-.665-.493-1.173-.493zM27.814 23h-.996v-7.682h-2.713v-.884h6.422v.884h-2.713V23zm6.791-6.54c.286 0 .542.024.768.071l-.135.903a3.313 3.313 0 00-.703-.088c-.52 0-.965.21-1.336.633-.367.421-.55.947-.55 1.576V23h-.973v-6.422h.802l.112 1.19h.047c.238-.418.525-.74.861-.967.336-.227.705-.34 1.108-.34zM40.523 23l-.193-.914h-.047c-.32.402-.64.676-.96.82-.317.14-.714.211-1.19.211-.637 0-1.137-.164-1.5-.492-.36-.328-.54-.795-.54-1.4 0-1.297 1.038-1.977 3.112-2.04l1.09-.035v-.398c0-.504-.11-.875-.328-1.113-.215-.242-.56-.364-1.037-.364-.535 0-1.14.165-1.817.493l-.298-.745a4.588 4.588 0 011.037-.404 4.541 4.541 0 011.136-.146c.766 0 1.332.17 1.7.51.37.34.556.884.556 1.634V23h-.72zm-2.197-.686c.606 0 1.08-.166 1.424-.498.348-.332.522-.796.522-1.394v-.58l-.973.04c-.774.028-1.332.15-1.676.364-.34.211-.51.541-.51.99 0 .352.106.62.317.803.215.184.513.275.896.275zm9.322.686v-4.154c0-.524-.119-.914-.357-1.172-.238-.258-.611-.387-1.12-.387-.671 0-1.163.182-1.476.545-.312.363-.468.963-.468 1.799V23h-.973v-6.422h.79l.16.879h.046c.2-.316.478-.56.838-.732.36-.176.76-.264 1.201-.264.773 0 1.355.187 1.746.562.39.372.586.967.586 1.788V23h-.973zm7.12-1.752c0 .598-.223 1.059-.668 1.383-.446.324-1.07.486-1.875.486-.852 0-1.516-.135-1.993-.404v-.902c.309.156.64.279.99.369.356.09.698.134 1.026.134.508 0 .899-.08 1.172-.24.273-.164.41-.412.41-.744 0-.25-.11-.463-.328-.639-.215-.18-.637-.39-1.266-.632-.597-.223-1.023-.416-1.277-.58a1.808 1.808 0 01-.563-.569 1.494 1.494 0 01-.181-.756c0-.523.213-.935.638-1.236.426-.305 1.01-.457 1.752-.457.692 0 1.368.14 2.028.422l-.346.79c-.644-.265-1.228-.398-1.752-.398-.46 0-.808.073-1.043.217-.234.145-.351.344-.351.598a.74.74 0 00.129.44c.09.12.232.236.427.345.196.11.57.268 1.125.475.762.277 1.276.556 1.541.837.27.282.405.635.405 1.061zm4.482-3.914h-1.635V23h-.972v-5.666h-1.149v-.44l1.149-.351v-.357c0-1.579.689-2.368 2.068-2.368.34 0 .738.069 1.195.205l-.252.78c-.375-.121-.695-.182-.96-.182-.368 0-.64.123-.815.37-.176.241-.264.632-.264 1.171v.416h1.635v.756zm3.885 5.783c-.95 0-1.7-.289-2.25-.867-.547-.578-.82-1.38-.82-2.408 0-1.035.253-1.858.761-2.467.512-.61 1.197-.914 2.057-.914.804 0 1.441.266 1.91.797.469.527.703 1.224.703 2.092v.615h-4.424c.02.754.21 1.326.569 1.717.363.39.873.586 1.529.586.691 0 1.375-.145 2.05-.434v.867c-.343.149-.67.254-.978.317-.305.066-.674.1-1.107.1zm-.264-5.842c-.516 0-.928.168-1.236.504-.305.336-.485.801-.54 1.395h3.358c0-.613-.137-1.082-.41-1.406-.274-.329-.664-.493-1.172-.493zm7.219-.814c.285 0 .54.023.767.07l-.134.903a3.314 3.314 0 00-.704-.088c-.519 0-.964.21-1.335.633-.368.421-.551.947-.551 1.576V23h-.973v-6.422h.803l.111 1.19h.047c.238-.418.526-.74.861-.967.336-.227.706-.34 1.108-.34z" fill="#0C2564"/></svg>